Coordinates
version=1
nRows=13
nColumns=38
inDegrees=no

Units are S.I. units (second, meters, Newtons, ...)
If the header above contains a line with 'inDegrees', this indicates whether rotational values are in degrees (yes) or radians (no).

endheader
time	pelvis_tilt	pelvis_list	pelvis_rotation	pelvis_tx	pelvis_ty	pelvis_tz	hip_flexion_r	hip_adduction_r	hip_rotation_r	knee_angle_r	ankle_angle_r	subtalar_angle_r	mtp_angle_r	hip_flexion_l	hip_adduction_l	hip_rotation_l	knee_angle_l	ankle_angle_l	subtalar_angle_l	mtp_angle_l	lumbar_extension	lumbar_bending	lumbar_rotation	arm_flex_r	arm_add_r	arm_rot_r	elbow_flex_r	pro_sup_r	wrist_flex_r	wrist_dev_r	arm_flex_l	arm_add_l	arm_rot_l	elbow_flex_l	pro_sup_l	wrist_flex_l	wrist_dev_l
2	2.88523	1.31538	-1.19908	0.634197	1.09133	0.958858	0.217298	-0.0859177	-0.202474	1.05576	-0.367215	0	0	-0.292376	-0.0466523	-0.100194	0.224956	-0.142348	0	0	-0.46157	0.175519	-0.0700319	-0.0749554	-0.687853	0.852881	0.9103	0.528851	0	0	-0.12162	-0.169841	0.0500619	0.618649	1.39327	0	0
2.01	2.87937	1.32266	-1.18791	0.63382	1.09903	0.958037	0.22942	-0.0838365	-0.199748	1.00452	-0.365865	0	0	-0.293391	-0.0476207	-0.0953361	0.224444	-0.137934	0	0	-0.452082	0.176421	-0.0727634	-0.0733294	-0.685152	0.857317	0.904342	0.523504	0	0	-0.114171	-0.170995	0.060604	0.6081	1.38848	0	0
2.02	2.87319	1.32911	-1.1793	0.633676	1.10647	0.957154	0.239896	-0.0796125	-0.190437	0.949705	-0.366281	0	0	-0.295045	-0.0481578	-0.0934559	0.224199	-0.132791	0	0	-0.445079	0.176561	-0.0731584	-0.0710836	-0.683465	0.860606	0.89991	0.520818	0	0	-0.107268	-0.171302	0.0681045	0.599805	1.38461	0	0
2.03	2.86917	1.33339	-1.17461	0.633665	1.11344	0.956334	0.246951	-0.0735525	-0.175664	0.892423	-0.364247	0	0	-0.298422	-0.0483738	-0.0924568	0.224998	-0.127708	0	0	-0.442339	0.176626	-0.0716252	-0.069	-0.683055	0.860874	0.898493	0.517399	0	0	-0.100327	-0.171302	0.0739081	0.594484	1.38128	0	0
2.04	2.86452	1.33677	-1.17228	0.633944	1.12033	0.955516	0.251757	-0.0651277	-0.154112	0.833199	-0.357363	0	0	-0.302931	-0.0484571	-0.0952105	0.225794	-0.122881	0	0	-0.441567	0.175979	-0.0670905	-0.0663641	-0.683531	0.861485	0.897996	0.514616	0	0	-0.093484	-0.171205	0.0793619	0.590593	1.37928	0	0
2.05	2.85861	1.34266	-1.16813	0.634279	1.12761	0.954481	0.256137	-0.0572069	-0.130905	0.771364	-0.345546	0	0	-0.304974	-0.0480338	-0.0974833	0.227061	-0.116724	0	0	-0.436846	0.174404	-0.0627536	-0.064603	-0.682627	0.86337	0.894716	0.512837	0	0	-0.0861228	-0.171052	0.0864262	0.583398	1.37712	0	0
2.06	2.85098	1.35105	-1.16136	0.634602	1.13518	0.953241	0.260028	-0.0501427	-0.107189	0.705498	-0.331021	0	0	-0.304466	-0.04704	-0.0978601	0.228457	-0.109613	0	0	-0.428187	0.17235	-0.0590247	-0.0644882	-0.680087	0.864467	0.888934	0.511125	0	0	-0.0775474	-0.170654	0.0958622	0.571631	1.37394	0	0
2.07	2.84332	1.35953	-1.15456	0.634963	1.14281	0.951926	0.26086	-0.0430442	-0.0823257	0.63365	-0.316651	0	0	-0.30427	-0.045772	-0.0970258	0.229341	-0.103599	0	0	-0.419716	0.170205	-0.0559023	-0.0651334	-0.677046	0.863278	0.883428	0.509462	0	0	-0.0700669	-0.17007	0.103254	0.561202	1.37174	0	0
2.08	2.83562	1.36756	-1.14803	0.635397	1.15053	0.950577	0.257835	-0.0356309	-0.0579001	0.554487	-0.304767	0	0	-0.305156	-0.0445143	-0.0957908	0.229369	-0.0981849	0	0	-0.411787	0.168044	-0.052784	-0.0658203	-0.674065	0.861761	0.878183	0.508752	0	0	-0.0634703	-0.169507	0.109363	0.55179	1.37112	0	0
2.09	2.82963	1.37478	-1.14303	0.635852	1.1585	0.949219	0.250073	-0.0289849	-0.0386152	0.467804	-0.298651	0	0	-0.307875	-0.0432556	-0.0945954	0.228078	-0.0930399	0	0	-0.404305	0.165835	-0.0497955	-0.0671669	-0.670996	0.860025	0.872811	0.508981	0	0	-0.0576619	-0.168755	0.114687	0.542811	1.37089	0	0
2.1	2.82439	1.38139	-1.13732	0.63625	1.16688	0.947875	0.238122	-0.0238253	-0.0304753	0.375361	-0.300784	0	0	-0.311424	-0.0427258	-0.0933457	0.227238	-0.087557	0	0	-0.396413	0.164022	-0.0482222	-0.0689281	-0.667356	0.859153	0.866415	0.510518	0	0	-0.0525927	-0.167657	0.119051	0.533002	1.37121	0	0
2.11	2.82013	1.38689	-1.13128	0.636623	1.17559	0.946581	0.222702	-0.0194551	-0.0328246	0.280001	-0.311657	0	0	-0.316238	-0.0430454	-0.0915706	0.22668	-0.0824219	0	0	-0.388879	0.162747	-0.0478779	-0.0707127	-0.66353	0.859691	0.85949	0.513227	0	0	-0.0482614	-0.166514	0.122571	0.522996	1.37222	0	0
2.12	2.81953	1.3881	-1.13172	0.637281	1.1841	0.945519	0.203865	-0.0132159	-0.0365589	0.189251	-0.330299	0	0	-0.325904	-0.0439829	-0.0936757	0.22535	-0.0784461	0	0	-0.387548	0.162083	-0.0446945	-0.0725584	-0.662316	0.858386	0.857453	0.514027	0	0	-0.0451226	-0.165783	0.124709	0.518035	1.37262	0	0
